<svg height="496pt" viewBox="-15 0 495 496" width="496pt" xmlns="http://www.w3.org/2000/svg"><path d="m296.90625 218.527344-5.148438-15.457032c-2.160156-6.476562-3.257812-13.238281-3.257812-20.078124 0-16.96875 6.609375-32.914063 18.601562-44.902344l7.742188-7.746094 11.3125 11.3125-7.746094 7.742188c-8.964844 8.96875-13.910156 20.90625-13.910156 33.59375 0 5.121093.824219 10.167968 2.441406 15.023437l5.152344 15.457031zm0 0"/><path d="m238.578125 192c-11.476563 0-22.277344-6.113281-28.175781-15.953125-11.71875-19.519531-17.902344-41.863281-17.902344-64.613281v-7.433594h16v7.433594c0 19.855468 5.398438 39.351562 15.617188 56.382812 3.03125 5.046875 8.566406 8.183594 14.460937 8.183594 7.273437 0 13.699219-4.640625 16-11.535156l10.335937-31 15.179688 5.0625-10.335938 31c-4.480468 13.441406-17.011718 22.472656-31.179687 22.472656zm0 0"/><path d="m192.5 192h-16v-3.160156c0-17.289063-5.0625-34.023438-14.65625-48.40625l13.3125-8.875c11.34375 17.015625 17.34375 36.824218 17.34375 57.28125zm0 0"/><path d="m384.5 352h-37.480469c1.710938-2.496094 4.167969-4.464844 7.183594-5.472656l17.648437-5.878906c12.351563-4.121094 20.648438-15.632813 20.648438-28.648438v-8h-16v8c0 6.128906-3.902344 11.535156-9.703125 13.472656l-17.648437 5.878906c-9.726563 3.242188-16.871094 11.105469-19.496094 20.648438h-17.152344v-16c0-6.128906 3.902344-11.535156 9.703125-13.472656l17.648437-5.878906c4.296876-1.441407 8.128907-3.753907 11.382813-6.878907l-11.101563-11.53125c-1.527343 1.480469-3.328124 2.5625-5.34375 3.234375l-17.648437 5.878906c-12.34375 4.121094-20.640625 15.632813-20.640625 28.648438v16h-157.574219l3.421875-2.28125c31.398438-20.933594 50.152344-55.964844 50.152344-93.71875h-16c0 11.824219-2.230469 23.304688-6.289062 34.023438-4.871094-8.03125-12.246094-14.511719-21.375-17.945313l-19.046876-7.140625c-6.167968-2.3125-11.234374-6.800781-14.273437-12.632812l-14.183594 7.390624c4.863281 9.34375 12.976563 16.519532 22.839844 20.226563l19.054687 7.140625c9.496094 3.5625 16.058594 12.320312 17.074219 22.273438-3.023437 4.542968-6.394531 8.878906-10.175781 12.886718-4.082031-11.816406-13.210938-21.613281-25.28125-26.144531l-19.054688-7.140625c-10.34375-3.875-17.289062-13.898438-17.289062-24.9375v-8h-16v8c0 17.671875 11.121094 33.710938 27.664062 39.921875l19.054688 7.140625c9.769531 3.664062 16.433594 12.832031 17.144531 23.144531-.984375.714844-1.871093 1.519531-2.886719 2.199219l-23.402343 15.59375h-29.574219c-8.824219 0-16 7.175781-16 16v16c0 8.824219 7.175781 16 16 16h8.9375l3.621094 28.960938c2.3125 18.535156 17.226562 32.679687 35.441406 34.648437v32.390625h64v-32h80v32h64v-32.390625c18.214844-1.960937 33.128906-16.105469 35.441406-34.648437l3.621094-28.960938h8.9375c8.824219 0 16-7.175781 16-16v-16c0-8.824219-7.175781-16-16-16zm-208 128h-32v-16h32zm144 0h-32v-16h32zm35.566406-53.023438c-1.496094 11.984376-11.734375 21.023438-23.8125 21.023438h-199.507812c-12.078125 0-22.316406-9.039062-23.8125-21.023438l-3.371094-26.976562h253.882812zm-275.566406-42.976562v-16h304l.007812 16zm0 0"/><g fill="#f0bc5e"><path d="m429.300781 232.488281c-6.535156-15.679687-22.3125-26.0625-40.089843-24.320312-6.222657-14.367188-20.605469-24.167969-36.710938-24.167969s-30.488281 9.800781-36.710938 24.167969c-17.746093-1.726563-33.535156 8.648437-40.089843 24.320312-19.765625 2.398438-35.199219 19.097657-35.199219 39.511719 0 22.054688 17.945312 40 40 40h144c22.054688 0 40-17.945312 40-40 0-20.40625-15.425781-37.113281-35.199219-39.511719zm0 0"/><path d="m370.085938 72.023438c-7.859376-13.648438-21.929688-22.597657-37.714844-23.863282-10.015625-28.65625-37.078125-48.160156-67.871094-48.160156-13.761719 0-26.929688 3.847656-38.464844 11.191406-9.65625-7.253906-21.34375-11.191406-33.535156-11.191406-29.078125 0-53.046875 22.273438-55.753906 50.65625-10.871094 3.769531-20.0625 11.351562-25.832032 21.367188-25.734374.839843-46.414062 22.039062-46.414062 47.976562 0 7.265625 1.710938 14.265625 4.734375 20.617188 10.472656-12.808594 26.210937-20.617188 43.265625-20.617188 18.328125 0 35.167969 8.976562 45.542969 23.535156 18.234375-2.144531 33.800781-14.511718 39.800781-31.792968 2.023438-.199219 4.046875-.503907 6.046875-.925782 13.183594 20.625 35.855469 33.183594 60.609375 33.183594 12.550781 0 24.726562-3.230469 35.542969-9.40625 7.808593 5.789062 17.113281 9.0625 26.863281 9.382812 8.496094 14.757813 24.265625 24.023438 41.59375 24.023438 26.472656 0 48-21.527344 48-48 0-25.9375-20.679688-47.136719-46.414062-47.976562zm0 0"/><path d="m189.292969 184.488281c-6.554688-15.671875-22.351563-26.046875-40.089844-24.320312-6.214844-14.367188-20.597656-24.167969-36.703125-24.167969s-30.488281 9.800781-36.710938 24.167969c-17.722656-1.71875-33.527343 8.65625-40.089843 24.320312-19.765625 2.398438-35.199219 19.097657-35.199219 39.511719 0 22.054688 17.945312 40 40 40h144c22.054688 0 40-17.945312 40-40 0-20.414062-15.433594-37.113281-35.207031-39.511719zm0 0"/></g></svg>